<svg width="29" height="29" viewBox="0 0 29 29" fill="none" xmlns="http://www.w3.org/2000/svg">
<path d="M22.5183 4.74066L5.92588 4.74066C4.98289 4.74066 4.07854 5.11526 3.41175 5.78205C2.74496 6.44884 2.37036 7.35319 2.37036 8.29618L2.37036 20.1479C2.37036 21.0909 2.74496 21.9952 3.41175 22.662C4.07854 23.3288 4.98289 23.7034 5.92588 23.7034L22.5183 23.7034C23.4613 23.7034 24.3656 23.3288 25.0324 22.662C25.6992 21.9952 26.0738 21.0909 26.0738 20.1479L26.0738 8.29618C26.0738 7.35319 25.6992 6.44884 25.0324 5.78205C24.3656 5.11526 23.4613 4.74066 22.5183 4.74066ZM22.5183 7.111L14.8147 12.4087C14.6345 12.5127 14.4301 12.5675 14.2221 12.5675C14.014 12.5675 13.8097 12.5127 13.6295 12.4087L5.92588 7.111L22.5183 7.111Z" fill="#404553"/>
</svg>
