<svg width="29" height="29" viewBox="0 0 29 29" fill="none" xmlns="http://www.w3.org/2000/svg">
<path fill-rule="evenodd" clip-rule="evenodd" d="M3.55542 5.33777C3.55542 4.86507 3.7432 4.41174 4.07744 4.0775C4.41168 3.74326 4.86501 3.55548 5.3377 3.55548L23.1043 3.55548C23.3385 3.5551 23.5706 3.60093 23.7871 3.69033C24.0036 3.77974 24.2004 3.91098 24.3661 4.07653C24.5318 4.24208 24.6633 4.4387 24.7529 4.65512C24.8426 4.87154 24.8886 5.10351 24.8885 5.33777L24.8885 23.1043C24.8888 23.3386 24.8428 23.5707 24.7533 23.7872C24.6638 24.0037 24.5325 24.2005 24.3668 24.3662C24.2012 24.5319 24.0045 24.6634 23.788 24.753C23.5716 24.8426 23.3395 24.8887 23.1053 24.8886L5.3377 24.8886C5.10357 24.8886 4.87173 24.8424 4.65543 24.7528C4.43913 24.6632 4.24261 24.5318 4.0771 24.3662C3.91158 24.2006 3.78032 24.004 3.69081 23.7877C3.6013 23.5713 3.55529 23.3394 3.55542 23.1053L3.55542 5.33777ZM11.9994 11.6892H14.8881V13.1399C15.3051 12.3059 16.3718 11.5554 17.9746 11.5554C21.0476 11.5554 21.7758 13.2165 21.7758 16.2642V21.9097H18.666L18.666 16.9585C18.666 15.2227 18.2491 14.2434 17.1902 14.2434C15.7211 14.2434 15.1102 15.2993 15.1102 16.9585L15.1102 21.9097L11.9994 21.9097L11.9994 11.6892ZM6.66617 21.7768H9.77692L9.77692 11.5554H6.66617L6.66617 21.7759V21.7768ZM10.222 8.22161C10.2279 8.48796 10.1805 8.75279 10.0826 9.00057C9.98473 9.24835 9.83835 9.47409 9.65206 9.66453C9.46576 9.85498 9.2433 10.0063 8.99774 10.1096C8.75217 10.2129 8.48844 10.2661 8.22203 10.2661C7.95562 10.2661 7.69189 10.2129 7.44633 10.1096C7.20076 10.0063 6.9783 9.85498 6.79201 9.66453C6.60571 9.47409 6.45933 9.24835 6.36146 9.00057C6.26359 8.75279 6.21619 8.48796 6.22206 8.22161C6.23357 7.69881 6.44934 7.2013 6.82315 6.83563C7.19696 6.46995 7.6991 6.26519 8.22203 6.26519C8.74496 6.26519 9.2471 6.46995 9.62091 6.83563C9.99473 7.2013 10.2105 7.69881 10.222 8.22161Z" fill="#404553"/>
</svg>
