<svg width="29" height="29" viewBox="0 0 29 29" fill="none" xmlns="http://www.w3.org/2000/svg">
<path d="M7.9746 2.74589L9.94233 2.15263C10.5917 1.95714 11.2901 2.00457 11.9071 2.28607C12.5241 2.56757 13.0177 3.06391 13.2957 3.68251L14.6752 6.75041C14.9147 7.28265 14.9814 7.8765 14.8661 8.4486C14.7507 9.0207 14.4591 9.54232 14.0322 9.94022L11.9324 11.8968C11.651 12.1639 11.8643 13.2052 12.8924 14.987C13.9215 16.7699 14.7169 17.4749 15.0836 17.3651L17.8346 16.524C18.3922 16.3535 18.9892 16.3617 19.5419 16.5475C20.0946 16.7333 20.5753 17.0874 20.9167 17.5602L22.8773 20.2776C23.2733 20.8264 23.4567 21.5002 23.3933 22.1739C23.33 22.8477 23.0242 23.4755 22.5329 23.9408L21.0172 25.3762C20.528 25.8396 19.9245 26.1649 19.2685 26.3189C18.6125 26.4729 17.9273 26.4501 17.2829 26.2529C14.1074 25.2807 11.1664 22.3957 8.42057 17.6384C5.6686 12.874 4.62937 8.85528 5.35368 5.57202C5.49977 4.91044 5.81965 4.29979 6.28035 3.80302C6.74105 3.30625 7.32589 2.94134 7.9746 2.74589Z" fill="#404553"/>
</svg>
